<svg xmlns="http://www.w3.org/2000/svg" xmlns:xlink="http://www.w3.org/1999/xlink" viewBox="0 0 420.47 75"><defs><style>.cls-1{fill:none;}.cls-2{fill:url(#名称未設定グラデーション_14);}.cls-3{fill:#303030;}</style><linearGradient id="名称未設定グラデーション_14" x1="0.25" y1="37" x2="104.46" y2="37" gradientUnits="userSpaceOnUse"><stop offset="0" stop-color="#f2709c"/><stop offset="1" stop-color="#ff9472"/></linearGradient></defs><g id="レイヤー_2" data-name="レイヤー 2"><g id="レイヤー_1-2" data-name="レイヤー 1"><rect class="cls-1" width="420" height="75"/><path class="cls-2" d="M34.22,70.86l-7.49-7.49,61.7-61.7a5,5,0,0,1,7.07,0L103,9.16a5,5,0,0,1,0,7.07L48.36,70.86A10,10,0,0,1,34.22,70.86ZM16.28,23.8a5,5,0,0,0-7.07,0L1.72,31.29a5,5,0,0,0,0,7.07L23.43,60.07,38,45.51Z"/><path class="cls-3" d="M139.2,15.67l13.42,37.89L166,15.68a3,3,0,0,1,2.83-2h9.75a3,3,0,0,1,3,3v49a3,3,0,0,1-3,3h-5.36a3,3,0,0,1-3-3v-12l1.13-25.95-14.13,39a3,3,0,0,1-2.82,2H150.8a3,3,0,0,1-2.82-2l-14.09-39L135,53.64v12a3,3,0,0,1-3,3h-5.33a3,3,0,0,1-3-3v-49a3,3,0,0,1,3-3h9.69A3,3,0,0,1,139.2,15.67Z"/><path class="cls-3" d="M219.21,64.51q-4.05,4.92-11.18,4.91-6.57,0-10-3.77t-3.53-11.07V30.8a3,3,0,0,1,3-3h4.91a3,3,0,0,1,3,3V54.23q0,6.39,5.82,6.39,5.38,0,7.5-3.63a.89.89,0,0,0,.13-.48V30.8a3,3,0,0,1,3-3h4.95a3,3,0,0,1,3,3V65.67a3,3,0,0,1-3,3H222.3a3,3,0,0,1-3-2.78Z"/><path class="cls-3" d="M264.15,57.38a3.52,3.52,0,0,0-2-3.16,22.79,22.79,0,0,0-6.37-2.06q-14.58-3.06-14.58-12.39a11.23,11.23,0,0,1,4.52-9.08q4.5-3.64,11.8-3.64,7.79,0,12.44,3.66a11.7,11.7,0,0,1,4,5.53,3,3,0,0,1-2.84,4h-4.95a2.91,2.91,0,0,1-2.79-1.91,5.1,5.1,0,0,0-1.22-2,6.39,6.39,0,0,0-4.72-1.53,6.55,6.55,0,0,0-4.27,1.24,4,4,0,0,0-1.51,3.18,3.35,3.35,0,0,0,1.72,2.92,17.51,17.51,0,0,0,5.8,1.93,47,47,0,0,1,6.87,1.83q8.65,3.18,8.65,11a10.67,10.67,0,0,1-4.8,9q-4.79,3.45-12.38,3.45a21.59,21.59,0,0,1-9.12-1.83,15.17,15.17,0,0,1-6.25-5,12.32,12.32,0,0,1-1.54-2.84,3,3,0,0,1,2.82-4h4.19a3.12,3.12,0,0,1,3,2,5.28,5.28,0,0,0,1.78,2.46,8.48,8.48,0,0,0,5.36,1.55,7.93,7.93,0,0,0,4.74-1.19A3.7,3.7,0,0,0,264.15,57.38Z"/><path class="cls-3" d="M298.86,20.74V27.8h4a3,3,0,0,1,3,3v2a3,3,0,0,1-3,3h-4V56.2a4.87,4.87,0,0,0,.86,3.25c.58.66,1.69,1,3.33,1h.17a3,3,0,0,1,3,3V66.1a3,3,0,0,1-2.47,3,22.85,22.85,0,0,1-4.14.37q-11.49,0-11.71-11.59v-22h-3a3,3,0,0,1-3-3v-2a3,3,0,0,1,3-3h3V20.74a3,3,0,0,1,3-3h4.95A3,3,0,0,1,298.86,20.74Z"/><path class="cls-3" d="M331.9,65.67v-49a3,3,0,0,1,3-3h13.92a25.8,25.8,0,0,1,13,3.26,22.85,22.85,0,0,1,8.93,9.29,28.68,28.68,0,0,1,3.21,13.7v2.53a28.76,28.76,0,0,1-3.15,13.63,22.61,22.61,0,0,1-8.9,9.25,25.83,25.83,0,0,1-12.95,3.33h-14A3,3,0,0,1,331.9,65.67Zm11.33-42.82V59.57h5.48q6.65,0,10.16-4.35c2.34-2.89,3.54-7,3.59-12.42V39.89q0-8.39-3.48-12.71t-10.16-4.33Z"/><path class="cls-3" d="M381.76,47.86A24.23,24.23,0,0,1,384.1,37a17.14,17.14,0,0,1,6.74-7.37,19.73,19.73,0,0,1,10.22-2.6q8.26,0,13.5,5.06t5.83,13.75l.08,2.79q0,9.41-5.25,15.09t-14.09,5.68q-8.83,0-14.1-5.66t-5.27-15.41Zm10.91.77q0,5.84,2.19,8.91a7.88,7.88,0,0,0,12.47,0q2.22-3,2.22-9.74,0-5.72-2.22-8.85a7.24,7.24,0,0,0-6.27-3.14,7.13,7.13,0,0,0-6.2,3.12Q392.67,42.09,392.67,48.63Z"/></g></g></svg>